<svg width="549" height="96" viewBox="0 0 549 96" fill="none" xmlns="http://www.w3.org/2000/svg">
<path d="M103.283 36.8343H14.7231C12.5836 36.9049 10.5358 37.7197 8.93259 39.1383C7.32941 40.5568 6.27131 42.4902 5.94067 44.6051L0.101046 87.6896C-0.0700958 88.6579 -0.023395 89.6523 0.237756 90.6003C0.498907 91.5484 0.967951 92.4264 1.61082 93.1705C2.25368 93.9146 3.05422 94.5063 3.95429 94.9023C4.85437 95.2984 5.83136 95.4891 6.81431 95.4604C8.96183 95.4003 11.0205 94.5902 12.6332 93.1708C14.2458 91.7513 15.3106 89.8121 15.6427 87.6896L20.2408 52.3759H101.26C103.399 52.3053 105.447 51.4905 107.05 50.072C108.654 48.6535 109.712 46.7201 110.042 44.6051C110.214 43.6328 110.167 42.6344 109.903 41.6828C109.639 40.7313 109.166 39.8508 108.518 39.1058C107.87 38.3608 107.064 37.7701 106.158 37.3771C105.252 36.9841 104.27 36.7986 103.283 36.8343Z" fill="#2D3142"/>
<path d="M116.344 0H19.783C17.6195 0.0388188 15.539 0.839288 13.9074 2.26062C12.2759 3.68194 11.1977 5.6331 10.8627 7.77085C10.6123 9.50166 11.0568 11.2613 12.0992 12.6655C13.1416 14.0697 14.6972 15.0045 16.4264 15.2658H17.5759H114.137C116.276 15.1951 118.324 14.3804 119.927 12.9618C121.53 11.5433 122.588 9.60994 122.919 7.49497C123.169 5.76416 122.725 4.00456 121.683 2.60034C120.64 1.19612 119.085 0.261311 117.355 0H116.344Z" fill="#2D3142"/>
<path d="M523.341 0.0120908H460.761C452.931 0.200855 445.416 3.13685 439.532 8.30642C433.648 13.476 429.769 20.5499 428.574 28.2906L423.378 67.1907C422.772 70.715 422.954 74.3299 423.913 77.7751C424.872 81.2202 426.583 84.4099 428.922 87.1144C431.262 89.819 434.172 91.9711 437.443 93.4158C440.714 94.8605 444.265 95.5618 447.84 95.4692H510.558C518.389 95.2805 525.903 92.3445 531.787 87.1749C537.671 82.0054 541.55 74.9314 542.745 67.1907L547.941 28.2906C548.55 24.7545 548.365 21.1273 547.398 17.6718C546.432 14.2163 544.709 11.0192 542.354 8.31206C539.999 5.60495 537.071 3.45572 533.783 2.02016C530.494 0.584598 526.928 -0.101346 523.341 0.0120908ZM527.112 67.1907C526.527 70.6376 524.762 73.7742 522.12 76.0639C519.478 78.3537 516.123 79.6544 512.628 79.7437H450.001C448.39 79.7873 446.789 79.4729 445.314 78.8231C443.838 78.1734 442.526 77.2044 441.47 75.9861C440.414 74.7678 439.642 73.3305 439.209 71.7778C438.776 70.225 438.693 68.5956 438.966 67.0068L444.024 28.1067C444.57 24.6262 446.318 21.4468 448.963 19.1203C451.609 16.7938 454.986 15.4669 458.508 15.3699H521.272C522.883 15.3262 524.485 15.6406 525.96 16.2904C527.435 16.9401 528.748 17.9091 529.803 19.1274C530.859 20.3457 531.631 21.783 532.064 23.3357C532.497 24.8884 532.58 26.5179 532.308 28.1067L527.112 67.1907Z" fill="#2D3142"/>
<path d="M393.241 46.3032C398.182 41.4155 401.408 35.0599 402.437 28.1865C403.013 24.8266 402.871 21.3828 402.02 18.0817C401.169 14.7806 399.629 11.6972 397.501 9.03439C395.372 6.37159 392.704 4.18982 389.671 2.63265C386.639 1.07548 383.311 0.178237 379.906 0H304.589C302.45 0.0706412 300.402 0.88545 298.799 2.30398C297.195 3.7225 296.137 5.65584 295.807 7.77081C295.69 8.63452 295.746 9.51273 295.97 10.355C296.193 11.1973 296.581 11.9871 297.111 12.6792C297.641 13.3712 298.302 13.9519 299.056 14.3878C299.811 14.8238 300.644 15.1065 301.508 15.2198H375.676C377.277 15.2024 378.862 15.5378 380.318 16.2023C381.774 16.8667 383.066 17.8438 384.102 19.0641C385.138 20.2845 385.893 21.718 386.312 23.2629C386.731 24.8077 386.805 26.426 386.528 28.0026C385.979 31.4371 384.261 34.5767 381.663 36.8894C379.066 39.2022 375.748 40.546 372.274 40.6934H299.163C297.024 40.7641 294.976 41.5789 293.373 42.9974C291.77 44.4159 290.712 46.3493 290.381 48.4643L285.185 87.5484C285.014 88.5167 285.061 89.511 285.322 90.4591C285.583 91.4072 286.052 92.2852 286.695 93.0293C287.338 93.7734 288.138 94.365 289.038 94.7611C289.938 95.1572 290.915 95.3478 291.898 95.3192C294.038 95.2485 296.086 94.4337 297.689 93.0152C299.292 91.5967 300.35 89.6633 300.681 87.5484L304.865 56.6029H375.354C376.982 56.5369 378.603 56.8365 380.1 57.4797C381.596 58.1229 382.929 59.0933 384.001 60.3196C385.073 61.5459 385.856 62.9969 386.294 64.5659C386.731 66.1348 386.811 67.7818 386.528 69.3857L384.045 87.7783C383.874 88.7466 383.92 89.741 384.181 90.689C384.443 91.6371 384.912 92.5151 385.555 93.2592C386.197 94.0033 386.998 94.5949 387.898 94.991C388.798 95.3871 389.775 95.5778 390.758 95.5491C392.898 95.4785 394.945 94.6637 396.549 93.2451C398.152 91.8266 399.21 89.8932 399.54 87.7783L402.023 69.3857C402.724 65.1056 402.281 60.7162 400.739 56.6625C399.196 52.6088 396.61 49.0349 393.241 46.3032V46.3032Z" fill="#2D3142"/>
<path d="M258.838 0H162.277C160.138 0.0706412 158.09 0.88545 156.487 2.30398C154.884 3.7225 153.825 5.65588 153.495 7.77085C153.244 9.50166 153.689 11.2613 154.731 12.6655C155.774 14.0697 157.329 15.0045 159.058 15.2658H160.07H256.631C258.77 15.1951 260.818 14.3804 262.421 12.9618C264.024 11.5433 265.083 9.60994 265.413 7.49497C265.664 5.76416 265.219 4.00456 264.177 2.60034C263.134 1.19612 261.579 0.261311 259.849 0H258.838Z" fill="#2D3142"/>
<path d="M248.124 79.7388H159.104L162.783 52.15H243.526C245.737 52.1767 247.883 51.4059 249.572 49.9787C251.261 48.5516 252.379 46.5637 252.722 44.3792C252.893 43.4108 252.846 42.4165 252.585 41.4685C252.324 40.5204 251.855 39.6424 251.212 38.8983C250.569 38.1541 249.769 37.5625 248.869 37.1664C247.969 36.7703 246.992 36.5797 246.009 36.6083H157.173C155.033 36.679 152.986 37.4938 151.382 38.9123C149.779 40.3308 148.721 42.2642 148.39 44.3792L142.643 87.4637C142.472 88.432 142.518 89.4263 142.78 90.3744C143.041 91.3225 143.51 92.2005 144.153 92.9446C144.795 93.6887 145.596 94.2803 146.496 94.6764C147.396 95.0725 148.373 95.2631 149.356 95.2345H245.917C248.056 95.1638 250.104 94.3491 251.707 92.9305C253.31 91.512 254.369 89.5786 254.699 87.4637C254.844 86.6062 254.819 85.7286 254.625 84.8809C254.43 84.0332 254.071 83.2322 253.567 82.5234C253.063 81.8146 252.425 81.2119 251.688 80.7499C250.951 80.288 250.131 79.9756 249.273 79.8308L248.124 79.7388Z" fill="#2D3142"/>
</svg>
