<svg width="405" height="76" viewBox="0 0 405 76" fill="none" xmlns="http://www.w3.org/2000/svg">
<g filter="url(#filter0_dddddddd_1674_53)">
<path d="M78.431 27.2477H14.0609C12.5058 27.2991 11.0173 27.8913 9.85206 28.9224C8.68678 29.9535 7.9177 31.3587 7.67737 32.896L3.43282 64.2121C3.30843 64.916 3.34237 65.6387 3.53219 66.3278C3.72201 67.0169 4.06293 67.6551 4.5302 68.1959C4.99747 68.7368 5.57935 69.1668 6.23357 69.4547C6.88779 69.7426 7.59792 69.8812 8.31238 69.8604C9.87331 69.8167 11.3697 69.2279 12.5418 68.1961C13.714 67.1644 14.4879 65.7549 14.7293 64.2121L18.0715 38.5443H76.9605C78.5156 38.4929 80.004 37.9007 81.1693 36.8696C82.3346 35.8386 83.1037 34.4333 83.344 32.896C83.4691 32.1893 83.4345 31.4636 83.2428 30.7719C83.0511 30.0803 82.7072 29.4403 82.2362 28.8988C81.7651 28.3573 81.179 27.928 80.5206 27.6423C79.8622 27.3566 79.1482 27.2218 78.431 27.2477Z" fill="#2D3142"/>
<path d="M87.9242 0.474625H17.7387C16.1662 0.50284 14.6539 1.08466 13.468 2.11776C12.2821 3.15086 11.4985 4.56906 11.2549 6.12289C11.0729 7.38094 11.396 8.65991 12.1537 9.68057C12.9114 10.7012 14.0421 11.3807 15.2989 11.5706H16.1345H86.32C87.8751 11.5193 89.3635 10.927 90.5288 9.89599C91.6941 8.86493 92.4632 7.45964 92.7035 5.92237C92.8855 4.66432 92.5624 3.38535 91.8047 2.36469C91.0471 1.34403 89.9164 0.664559 88.6595 0.474625H87.9242Z" fill="#2D3142"/>
<path d="M383.752 0.483413H338.265C332.574 0.620617 327.112 2.75466 322.835 6.51217C318.558 10.2697 315.739 15.4114 314.87 21.0377L311.093 49.3125C310.652 51.8741 310.785 54.5016 311.482 57.0057C312.179 59.5098 313.422 61.8282 315.123 63.7941C316.823 65.7599 318.939 67.3242 321.316 68.3742C323.694 69.4243 326.275 69.9341 328.873 69.8668H374.461C380.152 69.7296 385.614 67.5955 389.891 63.838C394.168 60.0805 396.987 54.9388 397.856 49.3125L401.632 21.0377C402.075 18.4676 401.94 15.8311 401.238 13.3195C400.535 10.8078 399.283 8.48396 397.571 6.51628C395.859 4.5486 393.731 2.98643 391.341 1.94298C388.951 0.899542 386.359 0.400961 383.752 0.483413ZM386.492 49.3125C386.067 51.8178 384.785 54.0976 382.864 55.7619C380.944 57.4263 378.505 58.3717 375.965 58.4366H330.444C329.273 58.4683 328.109 58.2398 327.037 57.7675C325.965 57.2952 325.011 56.5909 324.243 55.7054C323.476 54.8199 322.915 53.7751 322.6 52.6465C322.285 51.5179 322.225 50.3336 322.423 49.1788L326.099 20.904C326.497 18.3742 327.767 16.0633 329.69 14.3723C331.613 12.6812 334.067 11.7168 336.627 11.6463H382.248C383.419 11.6145 384.583 11.8431 385.655 12.3153C386.727 12.7876 387.681 13.4919 388.449 14.3775C389.216 15.263 389.777 16.3077 390.092 17.4363C390.407 18.5649 390.467 19.7493 390.269 20.904L386.492 49.3125Z" fill="#2D3142"/>
<path d="M289.188 34.1302C292.779 30.5776 295.124 25.958 295.872 20.9621C296.291 18.5199 296.188 16.0168 295.569 13.6174C294.951 11.218 293.831 8.97677 292.284 7.04131C290.737 5.10584 288.798 3.52001 286.593 2.38817C284.389 1.25634 281.97 0.604177 279.496 0.474625H224.751C223.196 0.52597 221.708 1.11822 220.542 2.14928C219.377 3.18034 218.608 4.58559 218.368 6.12287C218.283 6.75066 218.323 7.38899 218.486 8.0012C218.649 8.61342 218.931 9.1875 219.316 9.69052C219.701 10.1935 220.181 10.6156 220.73 10.9325C221.278 11.2494 221.884 11.4549 222.512 11.5372H276.421C277.584 11.5245 278.736 11.7684 279.795 12.2513C280.853 12.7342 281.793 13.4445 282.546 14.3315C283.299 15.2185 283.847 16.2604 284.152 17.3833C284.456 18.5062 284.51 19.6825 284.309 20.8284C283.91 23.3248 282.661 25.6068 280.773 27.2878C278.885 28.9689 276.474 29.9457 273.948 30.0528H220.807C219.252 30.1041 217.764 30.6964 216.599 31.7274C215.433 32.7585 214.664 34.1638 214.424 35.7011L210.647 64.1095C210.523 64.8133 210.557 65.536 210.747 66.2251C210.936 66.9142 211.277 67.5524 211.745 68.0933C212.212 68.6342 212.794 69.0642 213.448 69.3521C214.102 69.64 214.812 69.7785 215.527 69.7577C217.082 69.7064 218.57 69.1141 219.736 68.0831C220.901 67.052 221.67 65.6467 221.91 64.1095L224.952 41.6167H276.187C277.37 41.5687 278.549 41.7865 279.636 42.254C280.724 42.7215 281.693 43.4268 282.472 44.3182C283.251 45.2095 283.82 46.2642 284.138 47.4045C284.456 48.5449 284.514 49.7421 284.309 50.9079L282.504 64.2766C282.379 64.9804 282.413 65.7032 282.603 66.3923C282.793 67.0814 283.134 67.7195 283.601 68.2604C284.068 68.8013 284.65 69.2313 285.304 69.5192C285.959 69.8071 286.669 69.9457 287.383 69.9248C288.938 69.8735 290.427 69.2812 291.592 68.2502C292.757 67.2191 293.527 65.8138 293.767 64.2766L295.572 50.9079C296.081 47.7968 295.759 44.6064 294.638 41.6599C293.517 38.7135 291.637 36.1158 289.188 34.1302V34.1302Z" fill="#2D3142"/>
<path d="M191.497 0.474625H121.311C119.756 0.52597 118.268 1.11822 117.102 2.14928C115.937 3.18034 115.168 4.58562 114.928 6.12289C114.746 7.38094 115.069 8.65991 115.826 9.68057C116.584 10.7012 117.715 11.3807 118.972 11.5706H119.707H189.892C191.447 11.5193 192.936 10.927 194.101 9.89599C195.266 8.86493 196.036 7.45964 196.276 5.92237C196.458 4.66432 196.135 3.38535 195.377 2.36469C194.619 1.34403 193.489 0.664559 192.232 0.474625H191.497Z" fill="#2D3142"/>
<path d="M183.709 58.4331H119.005L121.678 38.3801H180.367C181.974 38.3995 183.534 37.8392 184.762 36.8018C185.989 35.7645 186.802 34.3196 187.051 32.7318C187.176 32.0279 187.142 31.3052 186.952 30.6161C186.762 29.927 186.421 29.2888 185.954 28.748C185.487 28.2071 184.905 27.7771 184.25 27.4892C183.596 27.2013 182.886 27.0627 182.172 27.0835H117.601C116.046 27.1349 114.557 27.7271 113.392 28.7582C112.227 29.7892 111.458 31.1945 111.217 32.7318L107.04 64.0479C106.915 64.7518 106.949 65.4745 107.139 66.1636C107.329 66.8527 107.67 67.4909 108.137 68.0317C108.604 68.5726 109.186 69.0026 109.841 69.2905C110.495 69.5784 111.205 69.717 111.919 69.6961H182.105C183.66 69.6448 185.148 69.0526 186.314 68.0215C187.479 66.9905 188.248 65.5852 188.488 64.0479C188.594 63.4247 188.575 62.7867 188.434 62.1706C188.293 61.5545 188.032 60.9722 187.666 60.457C187.299 59.9418 186.835 59.5038 186.3 59.168C185.764 58.8322 185.168 58.6052 184.545 58.4999L183.709 58.4331Z" fill="#2D3142"/>
</g>
<defs>
<filter id="filter0_dddddddd_1674_53" x="0.451961" y="0.474625" width="404.343" height="75.2671" filterUnits="userSpaceOnUse" color-interpolation-filters="sRGB">
<feFlood flood-opacity="0" result="BackgroundImageFix"/>
<feColorMatrix in="SourceAlpha" type="matrix" values="0 0 0 0 0 0 0 0 0 0 0 0 0 0 0 0 0 0 127 0" result="hardAlpha"/>
<feOffset dy="2.90741"/>
<feGaussianBlur stdDeviation="1.45371"/>
<feComposite in2="hardAlpha" operator="out"/>
<feColorMatrix type="matrix" values="0 0 0 0 0 0 0 0 0 0 0 0 0 0 0 0 0 0 0.25 0"/>
<feBlend mode="normal" in2="BackgroundImageFix" result="effect1_dropShadow_1674_53"/>
<feColorMatrix in="SourceAlpha" type="matrix" values="0 0 0 0 0 0 0 0 0 0 0 0 0 0 0 0 0 0 127 0" result="hardAlpha"/>
<feOffset dy="2.90741"/>
<feGaussianBlur stdDeviation="1.45371"/>
<feComposite in2="hardAlpha" operator="out"/>
<feColorMatrix type="matrix" values="0 0 0 0 0 0 0 0 0 0 0 0 0 0 0 0 0 0 0.25 0"/>
<feBlend mode="normal" in2="effect1_dropShadow_1674_53" result="effect2_dropShadow_1674_53"/>
<feColorMatrix in="SourceAlpha" type="matrix" values="0 0 0 0 0 0 0 0 0 0 0 0 0 0 0 0 0 0 127 0" result="hardAlpha"/>
<feOffset dy="2.90741"/>
<feGaussianBlur stdDeviation="1.45371"/>
<feComposite in2="hardAlpha" operator="out"/>
<feColorMatrix type="matrix" values="0 0 0 0 0 0 0 0 0 0 0 0 0 0 0 0 0 0 0.25 0"/>
<feBlend mode="normal" in2="effect2_dropShadow_1674_53" result="effect3_dropShadow_1674_53"/>
<feColorMatrix in="SourceAlpha" type="matrix" values="0 0 0 0 0 0 0 0 0 0 0 0 0 0 0 0 0 0 127 0" result="hardAlpha"/>
<feOffset dy="2.90741"/>
<feGaussianBlur stdDeviation="1.45371"/>
<feComposite in2="hardAlpha" operator="out"/>
<feColorMatrix type="matrix" values="0 0 0 0 0 0 0 0 0 0 0 0 0 0 0 0 0 0 0.25 0"/>
<feBlend mode="normal" in2="effect3_dropShadow_1674_53" result="effect4_dropShadow_1674_53"/>
<feColorMatrix in="SourceAlpha" type="matrix" values="0 0 0 0 0 0 0 0 0 0 0 0 0 0 0 0 0 0 127 0" result="hardAlpha"/>
<feOffset dy="2.90741"/>
<feGaussianBlur stdDeviation="1.45371"/>
<feComposite in2="hardAlpha" operator="out"/>
<feColorMatrix type="matrix" values="0 0 0 0 0 0 0 0 0 0 0 0 0 0 0 0 0 0 0.25 0"/>
<feBlend mode="normal" in2="effect4_dropShadow_1674_53" result="effect5_dropShadow_1674_53"/>
<feColorMatrix in="SourceAlpha" type="matrix" values="0 0 0 0 0 0 0 0 0 0 0 0 0 0 0 0 0 0 127 0" result="hardAlpha"/>
<feOffset dy="2.90741"/>
<feGaussianBlur stdDeviation="1.45371"/>
<feComposite in2="hardAlpha" operator="out"/>
<feColorMatrix type="matrix" values="0 0 0 0 0 0 0 0 0 0 0 0 0 0 0 0 0 0 1 0"/>
<feBlend mode="normal" in2="effect5_dropShadow_1674_53" result="effect6_dropShadow_1674_53"/>
<feColorMatrix in="SourceAlpha" type="matrix" values="0 0 0 0 0 0 0 0 0 0 0 0 0 0 0 0 0 0 127 0" result="hardAlpha"/>
<feOffset dy="2.90741"/>
<feGaussianBlur stdDeviation="1.45371"/>
<feComposite in2="hardAlpha" operator="out"/>
<feColorMatrix type="matrix" values="0 0 0 0 1 0 0 0 0 1 0 0 0 0 1 0 0 0 1 0"/>
<feBlend mode="normal" in2="effect6_dropShadow_1674_53" result="effect7_dropShadow_1674_53"/>
<feColorMatrix in="SourceAlpha" type="matrix" values="0 0 0 0 0 0 0 0 0 0 0 0 0 0 0 0 0 0 127 0" result="hardAlpha"/>
<feOffset dy="2.90741"/>
<feGaussianBlur stdDeviation="1.45371"/>
<feComposite in2="hardAlpha" operator="out"/>
<feColorMatrix type="matrix" values="0 0 0 0 1 0 0 0 0 1 0 0 0 0 1 0 0 0 1 0"/>
<feBlend mode="normal" in2="effect7_dropShadow_1674_53" result="effect8_dropShadow_1674_53"/>
<feBlend mode="normal" in="SourceGraphic" in2="effect8_dropShadow_1674_53" result="shape"/>
</filter>
</defs>
</svg>
